<svg width="52" height="52" viewBox="0 0 52 52" fill="none" xmlns="http://www.w3.org/2000/svg">
<g id="how_to_reg" clip-path="url(#clip0_140_105)">
<path id="Vector" d="M25.1953 43.6719L22.8773 41.3539C19.6969 38.1734 19.7238 32.9984 22.9312 29.8719L25.1953 27.6617C24.1441 27.5539 23.3625 27.5 22.5 27.5C15.3035 27.5 0.9375 31.1117 0.9375 38.2812V43.6719H25.1953ZM22.5 22.1094C28.4566 22.1094 33.2812 17.2848 33.2812 11.3281C33.2812 5.37148 28.4566 0.546875 22.5 0.546875C16.5434 0.546875 11.7188 5.37148 11.7188 11.3281C11.7188 17.2848 16.5434 22.1094 22.5 22.1094Z" fill="#1C1917"/>
<path id="Vector_2" d="M35.9092 42.9237C34.858 43.9213 33.133 43.9213 32.0818 42.9237L26.5025 37.5774C25.4783 36.5798 25.4783 34.9938 26.5025 34.0218L26.5295 33.9962C27.5807 32.9986 29.2787 32.9986 30.3029 33.9962L33.9955 37.5007L45.9357 26.092C46.9869 25.0943 48.685 25.0943 49.7361 26.092L49.7631 26.1175C50.7873 27.1152 50.7873 28.7011 49.7631 29.6732L35.9092 42.9237Z" fill="#1C1917"/>
</g>
<defs>
<clipPath id="clip0_140_105">
<rect width="50.6719" height="50.6719" fill="white" transform="translate(0.9375 0.546875)"/>
</clipPath>
</defs>
</svg>
