<svg width="50" height="55" viewBox="0 0 50 55" fill="none" xmlns="http://www.w3.org/2000/svg">
<g id="DollarSign">
<path id="Vector" d="M25.0702 46H23.324C22.9334 46 22.6168 45.6931 22.6168 45.3143V43.9377C22.6168 43.5757 22.3263 43.2781 21.9549 43.2379C21.0708 43.143 20.2156 42.9657 19.3891 42.7065C18.5862 42.4507 17.8906 42.1477 17.3023 41.7962C17.0319 41.6347 16.9336 41.307 17.0453 41.019L18.2431 37.9312C18.4045 37.5157 18.9249 37.3566 19.3257 37.5715C19.8667 37.8613 20.4484 38.1091 21.07 38.3149C21.9966 38.6042 22.8859 38.7489 23.7374 38.7489C24.4696 38.7489 24.9929 38.6725 25.3066 38.5192C25.6203 38.3488 25.7774 38.1019 25.7774 37.7786C25.7774 37.4042 25.5681 37.1234 25.1496 36.9362C24.7463 36.749 24.0736 36.5447 23.1325 36.3235C21.9219 36.0342 20.9134 35.7277 20.1065 35.4043C19.2995 35.0639 18.5971 34.5191 17.9994 33.7703C17.4016 33.0043 17.1028 31.9744 17.1028 30.6808C17.1028 29.1829 17.5735 27.8978 18.5148 26.8254C19.3634 25.8743 20.5348 25.2311 22.0296 24.8961C22.3662 24.8207 22.6168 24.5375 22.6168 24.2029V22.6857C22.6168 22.3069 22.9334 22 23.324 22H25.0702C25.4608 22 25.7774 22.3069 25.7774 22.6857V24.1161C25.7774 24.4665 26.0501 24.7583 26.4069 24.8121C27.7165 25.0093 28.8672 25.3826 29.8587 25.9322C30.1401 26.0882 30.2518 26.4201 30.1438 26.7163L29.0228 29.7914C28.8745 30.1991 28.3794 30.3715 27.9812 30.1768C26.7185 29.5597 25.5133 29.2511 24.3652 29.2511C23.0052 29.2511 22.3252 29.6255 22.3252 30.3743C22.3252 30.7319 22.5272 31.0041 22.9305 31.1917C23.3341 31.3617 23.9989 31.5489 24.9255 31.7533C26.1208 32.0087 27.1297 32.3063 27.9515 32.6467C28.7733 32.9701 29.483 33.5063 30.081 34.2554C30.6936 35.0042 31 36.0256 31 37.3192C31 38.7489 30.5441 40 29.6324 41.0725C28.8386 42.0071 27.7393 42.6613 26.3355 43.0353C26.0127 43.1214 25.7774 43.3984 25.7774 43.7227V45.3143C25.7774 45.6931 25.4608 46 25.0702 46Z" fill="white"/>
<path id="Vector_2" fill-rule="evenodd" clip-rule="evenodd" d="M17.8955 2H32.121C35.7645 2 33.7636 7.6576 32.2884 11.1086L30.6097 15.0662L30.3829 15.6C31.973 15.5201 33.5456 15.9758 34.8641 16.8988C39.7969 21.5697 43.8003 27.1933 46.6489 33.4534C47.7588 35.7681 48.1992 38.3657 47.9169 40.9334C47.5779 47.4781 42.5043 52.6933 36.1783 53H13.8381C7.51036 52.7025 2.42928 47.4927 2.08316 40.947C1.80075 38.3793 2.24112 35.7817 3.3513 33.467C6.20327 27.2008 10.2122 21.5721 15.1522 16.8988C16.471 15.9758 18.0433 15.5201 19.6333 15.6L19.3705 14.9846L17.7279 11.1086C16.2594 7.6576 14.2487 2 17.8955 2Z" stroke="white" stroke-width="3.75" stroke-linecap="round" stroke-linejoin="round"/>
<path id="Vector_3" d="M29.8168 18C31.1974 18 32.3167 16.7912 32.3167 15.3002C32.3167 13.8091 31.1974 12.6003 29.8168 12.6003V18ZM19.1831 12.6003C17.8025 12.6003 16.6832 13.8091 16.6832 15.3002C16.6832 16.7912 17.8025 18 19.1831 18V12.6003ZM38.7475 14.0398C39.9438 13.2955 40.3551 11.6447 39.6658 10.3527C38.9765 9.06065 37.4482 8.61662 36.2519 9.36091L38.7475 14.0398ZM30.0411 14.735L30.5234 17.3841L30.5307 17.3826L30.0411 14.735ZM18.9231 14.6486L19.4407 12.0071L19.4181 12.0021L18.9231 14.6486ZM12.7096 9.33734C11.5012 8.61612 9.98019 9.08938 9.31238 10.3944C8.64453 11.6995 9.08275 13.3421 10.2912 14.0634L12.7096 9.33734ZM29.8168 12.6003H19.1831V18H29.8168V12.6003ZM36.2519 9.36091C34.162 10.661 31.9 11.5809 29.5514 12.0874L30.5307 17.3826C33.415 16.7605 36.1892 15.6314 38.7475 14.0398L36.2519 9.36091ZM29.5588 12.0859C26.2142 12.7962 22.7763 12.7693 19.4407 12.0071L18.4056 17.2899C22.4 18.2027 26.5179 18.2347 30.5234 17.3841L29.5588 12.0859ZM19.4181 12.0021C17.0757 11.4914 14.8144 10.5936 12.7096 9.33734L10.2912 14.0634C12.8405 15.5849 15.5835 16.6747 18.4284 17.2951L19.4181 12.0021Z" fill="white"/>
</g>
</svg>
