<svg width="174" height="169" viewBox="0 0 174 169" fill="none" xmlns="http://www.w3.org/2000/svg">
<g id="hero-vector">
<path id="Vector" d="M25.2363 61.2015C25.9574 60.9419 26.6207 60.3651 27.3129 59.7017C28.0339 59.0384 28.7261 58.2596 29.4183 57.5098C28.6108 57.8559 27.8897 58.3173 27.1687 58.923C26.9957 59.0672 26.8226 59.2402 26.6496 59.3845C26.4765 59.5575 26.3323 59.7306 26.1593 59.9324C25.842 60.3074 25.5536 60.74 25.2363 61.2015Z" fill="#F8DF00"/>
<path id="Vector_2" d="M29.4757 57.481V57.4521C29.4468 57.481 29.4468 57.481 29.418 57.5098C29.4468 57.5098 29.4468 57.481 29.4757 57.481Z" fill="#F8DF00"/>
<path id="Vector_3" d="M171.261 102.156C170.511 102.474 169.674 102.791 168.838 103.166C169.645 102.848 170.482 102.531 171.261 102.156Z" fill="#F8DF00"/>
<path id="Vector_4" d="M33.8021 57.8846C33.8021 57.8846 34.177 57.9135 34.5808 57.9135C34.9557 57.9423 35.3307 57.9711 35.3307 57.9711C35.1865 58.2307 34.7539 58.2019 34.4078 58.1442C34.0328 58.0865 33.7156 58 33.8309 58.1442C34.0617 58.2307 34.2059 58.3172 34.3212 58.4038C34.3789 58.4326 34.4078 58.4903 34.4366 58.5191H34.4654H34.4943C34.4943 58.5191 34.5231 58.5191 34.4943 58.548C34.4366 58.6633 34.4078 58.8076 34.3501 58.9229C34.1482 59.4421 33.8598 59.9612 33.5714 60.5092C33.2829 61.0572 32.9657 61.6052 32.6484 62.1531C32.0139 63.2491 31.3506 64.3451 30.8603 65.3257C30.37 66.3063 30.0527 67.1427 30.0527 67.7484C29.995 67.6907 29.6201 68.354 29.2163 68.9886C28.8125 69.6231 28.3799 70.2287 28.1203 70.0268C28.4088 70.6902 28.1492 71.4401 27.7454 72.2765C27.3416 73.1129 26.8225 74.0646 26.5629 75.0164C26.5629 75.7951 27.0532 74.6415 27.5435 74.2665L25.5246 80.4963C25.3516 80.8424 25.1785 81.1308 25.0632 81.3903C24.9189 81.6499 24.7747 81.8806 24.6594 82.0825C24.3998 82.4575 24.2268 82.717 24.0825 82.7459C23.823 82.8612 23.8518 82.2267 24.3133 80.6405C23.8807 81.823 23.3615 83.3227 22.7558 85.0244C22.4386 85.8896 22.1502 86.8125 21.8618 87.7931C21.5445 88.7737 21.2272 89.8409 20.91 90.9368C20.8812 91.081 20.8235 91.2253 20.7946 91.3406C20.7658 91.4848 20.7081 91.629 20.6793 91.7444C20.5927 92.0328 20.5351 92.3212 20.4485 92.5808C20.3043 93.1576 20.1601 93.7344 19.9871 94.3401C19.8429 94.9458 19.6698 95.5515 19.5256 96.186C19.4968 96.3302 19.4391 96.5032 19.4102 96.6474C19.3814 96.7916 19.3526 96.9647 19.3237 97.1089C19.266 97.4261 19.1795 97.7434 19.1218 98.0606C18.8623 99.3297 18.5738 100.656 18.2854 102.012C18.0835 103.339 17.8528 104.723 17.6221 106.136C17.5644 106.482 17.5067 106.857 17.449 107.203C17.4202 107.549 17.3913 107.896 17.3913 108.242C17.3337 108.934 17.3048 109.626 17.2471 110.318C17.2183 110.664 17.1895 111.01 17.1895 111.385C17.1606 111.731 17.1318 112.106 17.1606 112.424C17.1895 113.087 17.2183 113.75 17.2471 114.443C17.276 115.135 17.3048 115.798 17.3337 116.49C17.3337 116.663 17.3625 116.808 17.3913 116.981L17.449 117.442C17.5067 117.759 17.5356 118.077 17.5932 118.394C17.7951 119.663 17.9393 120.99 18.2566 122.172C18.8623 124.595 19.7275 126.931 20.91 129.18C22.0636 131.43 23.5634 133.593 25.4669 135.612C27.3705 137.631 29.7355 139.477 32.2158 140.861C33.456 141.553 34.725 142.101 35.9652 142.563C36.2824 142.678 36.5709 142.794 36.8881 142.909C37.2054 142.996 37.4938 143.111 37.811 143.197C38.1283 143.313 38.4167 143.37 38.7051 143.457C38.9935 143.543 39.3108 143.63 39.5992 143.688C41.993 144.236 44.2715 144.495 46.5788 144.495C46.8672 144.495 47.1556 144.495 47.4441 144.466C47.7325 144.466 48.0209 144.466 48.3093 144.438C48.5977 144.409 48.8861 144.409 49.1745 144.38C49.463 144.322 49.7802 144.293 50.0686 144.236C51.2511 144.063 52.4336 143.861 53.5873 143.688C53.6738 143.688 53.7315 143.659 53.7892 143.659L54.0199 143.601L54.4813 143.457C54.7986 143.37 55.087 143.284 55.3754 143.197C55.9811 143.024 56.5579 142.851 57.1348 142.678L58 142.419C58.1442 142.39 58.2884 142.332 58.4326 142.303C58.5768 142.274 58.721 142.217 58.8652 142.159C59.4709 141.9 60.0477 141.64 60.6246 141.409C61.7782 140.919 62.8742 140.429 63.9413 139.938C65.0373 139.333 66.0756 138.756 67.0562 138.208C67.5465 137.919 68.0368 137.66 68.5271 137.4C68.7578 137.256 68.9886 137.141 69.2193 136.997C69.45 136.852 69.6807 136.708 69.9115 136.564C70.8056 135.987 71.6708 135.468 72.4495 134.978C72.8533 134.718 73.2282 134.487 73.6032 134.257C73.9781 134.026 74.3242 133.795 74.6703 133.564C75.3625 133.074 75.9682 132.641 76.545 132.238C75.9105 132.44 75.1029 132.843 74.2089 133.334C73.3148 133.795 72.3342 134.343 71.3535 134.862C70.8632 135.122 70.3729 135.381 69.9115 135.612C69.45 135.843 68.9886 136.074 68.5559 136.218C67.6907 136.535 66.9408 136.708 66.4217 136.622C66.9985 136.218 67.5176 135.843 68.0368 135.526C68.5271 135.208 68.9886 134.92 69.45 134.632C70.3153 134.055 71.094 133.622 71.7862 133.218C72.4784 132.814 73.084 132.468 73.632 132.093C73.9204 131.92 74.18 131.69 74.4107 131.459C74.6703 131.228 74.901 130.997 75.1318 130.738C75.7086 130.911 76.6315 130.594 77.7852 130.017C78.0736 129.873 78.362 129.7 78.6793 129.527C78.8235 129.44 78.9965 129.354 79.1407 129.238C79.3138 129.152 79.458 129.036 79.631 128.921C80.2944 128.488 80.9577 128.027 81.6788 127.537C82.371 127.046 83.092 126.556 83.813 126.094C83.9861 125.979 84.1591 125.864 84.361 125.748C84.5341 125.633 84.7071 125.518 84.8802 125.373C85.2263 125.143 85.5723 124.912 85.9184 124.681C87.3028 123.787 88.6295 123.095 89.7832 122.749C89.7832 122.749 89.812 122.633 89.8986 122.46C89.9274 122.403 89.9274 122.374 89.9562 122.316C89.9562 122.259 89.9851 122.23 89.9851 122.172C90.0139 122.086 90.0139 121.97 90.0428 121.884C90.0428 121.538 90.0716 121.191 90.0716 121.191L91.7156 120.672C94.2536 118.192 95.5803 116.808 96.359 116C97.1377 115.192 97.3973 114.933 97.628 114.76C97.8588 114.587 98.0895 114.471 98.8105 113.923C99.5604 113.375 100.801 112.366 103.021 110.491C103.339 110.203 103.627 109.914 103.915 109.655L104.319 109.251L104.521 109.049C104.579 108.992 104.55 109.02 104.55 108.992C104.521 108.905 104.521 108.847 104.492 108.761C104.463 108.588 104.406 108.386 104.406 108.184C104.377 107.78 104.463 107.405 104.665 107.607C104.636 107.607 104.579 107.463 104.492 107.261C104.406 107.059 104.348 106.828 104.406 106.598C104.55 107.088 104.579 106.828 104.694 106.54C104.781 106.252 104.925 105.906 104.983 106.482C105.069 106.338 105.213 106.223 105.386 105.906C105.531 105.617 105.704 105.098 105.675 104.262C105.704 104.665 105.848 104.838 105.906 105.098C105.963 105.329 105.934 105.617 105.732 106.136C105.877 106.079 105.934 106.28 106.165 105.761L106.107 105.329C106.453 104.954 106.598 105.127 106.742 105.156C106.886 105.156 107.059 105.011 107.751 103.8C107.751 103.8 107.78 103.598 107.838 103.396C107.867 103.194 107.896 103.021 107.896 103.021C108.444 102.589 109.078 102.127 107.838 104.608C107.838 104.608 107.636 104.838 107.463 105.098C107.29 105.329 107.117 105.559 107.117 105.559C107.376 105.386 107.607 105.242 107.953 104.925C108.299 104.608 108.761 104.117 109.568 103.281H109.395C109.684 102.964 110.001 102.618 110.405 102.243C111.212 101.55 112.222 100.714 113.52 100.08C114.154 99.7911 114.875 99.5604 115.539 99.5027C115.885 99.4739 116.202 99.5027 116.461 99.5604C116.75 99.6181 116.952 99.7046 117.096 99.82C117.384 100.022 117.471 100.195 117.557 100.368C117.644 100.541 117.759 100.714 117.846 100.858C118.048 101.147 118.307 101.377 118.798 101.262C118.798 101.262 119.403 100.772 120.038 100.281C120.672 99.7623 121.307 99.272 121.307 99.272C121.307 99.272 121.509 99.3585 121.653 99.5027C121.826 99.6181 121.941 99.7911 121.941 99.7911C122.028 99.6758 120.586 100.397 119.173 101.147C117.759 101.897 116.375 102.675 116.75 102.416C116.433 102.964 115.74 104.06 114.817 105.502C113.895 106.944 112.712 108.732 111.558 110.693C111.27 111.183 110.982 111.674 110.722 112.164C110.434 112.712 110.116 113.231 109.828 113.779C109.338 114.702 108.818 115.625 108.357 116.548C106.453 120.24 104.752 123.96 103.396 127.421C102.041 130.911 100.974 134.141 100.195 136.852C99.993 137.516 99.82 138.179 99.6758 138.785C99.5027 139.39 99.3585 139.967 99.2143 140.515C98.9259 141.755 98.6375 143.053 98.4933 144.207C98.1472 146.053 98.003 147.437 97.8588 148.072C97.7146 148.706 97.5415 148.648 97.3396 148.245C97.1377 147.812 96.9935 147.149 96.8782 146.514C96.7628 145.937 96.7051 145.447 96.6763 145.418C96.6186 146.745 96.7051 148.043 96.8205 149.081C96.907 149.658 96.9647 150.119 97.0512 150.581C97.1377 151.042 97.2531 151.446 97.3396 151.821C97.5415 152.571 97.7434 153.148 97.9165 153.58C98.1183 154.042 98.2914 154.417 98.4356 154.734C98.5798 155.051 98.7817 155.397 98.9836 155.772C99.1855 156.176 99.4162 156.637 99.7623 157.272C99.9353 157.589 100.137 157.935 100.368 158.339C100.483 158.541 100.628 158.743 100.772 158.974C100.858 159.089 100.916 159.204 101.002 159.32C101.031 159.377 101.089 159.435 101.118 159.493L101.176 159.579L101.204 159.637L101.233 159.666L101.695 160.3C101.752 160.358 101.781 160.416 101.839 160.502C101.897 160.589 101.983 160.675 102.041 160.762C102.358 161.166 102.733 161.598 103.108 162.031C103.31 162.262 103.512 162.463 103.714 162.694L103.858 162.838L103.973 162.954C104.06 163.04 104.146 163.098 104.204 163.184C104.896 163.905 105.213 164.223 105.213 164.338C105.213 164.453 104.925 164.338 104.492 164.079C104.262 163.934 104.031 163.79 103.742 163.588C103.598 163.502 103.454 163.386 103.339 163.271C103.166 163.127 102.964 162.925 102.762 162.752C102.387 162.406 102.012 162.002 101.666 161.627C101.579 161.54 101.493 161.454 101.406 161.339L101.291 161.194C101.262 161.166 101.262 161.166 101.262 161.166C101.233 161.137 101.204 161.108 101.176 161.079L101.233 161.137L101.32 161.223C101.493 161.454 101.695 161.685 101.897 161.915C102.272 162.377 102.675 162.81 103.079 163.213L103.339 163.473L103.569 163.675C103.714 163.819 103.858 163.934 104.002 164.079C104.29 164.338 104.579 164.598 104.867 164.828C105.156 165.059 105.415 165.29 105.704 165.492C105.992 165.694 106.252 165.896 106.511 166.069C106.771 166.242 107.03 166.415 107.29 166.588C107.549 166.761 107.78 166.905 108.011 167.02C108.472 167.28 108.905 167.511 109.28 167.684C109.655 167.857 110.001 168.001 110.289 168.116C110.866 168.347 111.241 168.405 111.385 168.318C111.01 168.174 110.664 168.001 110.376 167.828C110.059 167.655 109.799 167.511 109.54 167.338C109.049 167.02 108.645 166.703 108.386 166.444C108.097 166.184 107.896 165.953 107.751 165.751C107.607 165.549 107.521 165.376 107.492 165.203C107.405 164.886 107.434 164.598 107.348 164.28C107.261 163.934 107.088 163.531 106.627 162.925C106.627 162.925 106.828 163.069 107.175 163.357C107.549 163.646 108.04 163.992 108.674 164.396C109.914 165.175 111.558 165.982 113.174 166.501C114.76 167.049 116.317 167.338 117.471 167.482C118.048 167.539 118.538 167.597 118.855 167.626C119.201 167.655 119.374 167.655 119.374 167.655C119.374 167.655 119.23 167.828 119.086 168.03C118.942 168.203 118.798 168.405 118.798 168.405C119.144 168.434 119.519 168.405 119.922 168.376C120.326 168.318 120.759 168.232 121.249 168.145C121.739 168.03 122.259 167.886 122.835 167.713C123.124 167.626 123.441 167.511 123.758 167.424L123.816 167.395H123.845C123.989 167.366 123.528 167.453 124.162 167.338L124.22 167.309L124.306 167.251C124.364 167.222 124.422 167.165 124.508 167.136C124.537 167.078 125.056 166.905 125.46 166.761C125.575 166.732 125.662 166.674 125.777 166.645C125.864 166.617 126.008 166.559 126.066 166.53C126.239 166.472 126.383 166.386 126.556 166.328L127.594 165.896C127.969 165.751 128.286 165.578 128.661 165.405C129.382 165.059 130.161 164.713 130.911 164.338C131.632 163.992 132.411 163.617 133.276 163.213C133.939 162.867 134.574 162.55 135.122 162.233C135.699 161.915 136.218 161.598 136.708 161.31C137.689 160.733 138.64 160.127 139.621 159.522C141.525 158.31 143.457 157.041 145.274 155.801C148.966 153.263 152.513 150.725 155.916 148.475C156.089 148.908 154.82 150.148 153.551 151.359C154.474 150.754 155.801 149.687 156.811 149.369C154.734 149.831 159.291 146.976 157.849 147.581C158.08 147.264 158.339 146.976 158.599 146.687C158.858 146.399 159.118 146.11 159.406 145.851C159.983 145.303 160.589 144.784 161.194 144.265C161.829 143.774 162.463 143.313 163.127 142.851L164.136 142.188C164.482 141.986 164.8 141.755 165.146 141.553C165.809 141.15 166.472 140.717 167.136 140.313C167.799 139.938 168.434 139.535 169.039 139.131C169.357 138.929 169.645 138.727 169.933 138.525C170.222 138.323 170.51 138.15 170.77 137.948C171.318 137.544 171.808 137.141 172.27 136.708C172.212 136.506 172.096 135.872 171.923 134.92C171.75 133.968 171.548 132.699 171.347 131.228C171.145 129.728 170.914 128.027 170.712 126.181C170.51 124.335 170.337 122.432 170.193 120.47C170.049 118.509 169.933 116.548 169.876 114.673C169.818 112.827 169.789 111.039 169.76 109.511C169.703 106.396 169.703 104.146 169.501 103.685C171.433 102.964 173.337 102.271 174 102.214C173.683 102.098 172.558 102.329 171.26 102.733C170.626 102.935 169.933 103.166 169.299 103.454C168.664 103.742 168.088 104.031 167.655 104.29L167.741 105.415C165.607 106.54 165.319 106.54 164.973 106.482C164.655 106.425 164.309 106.309 162.262 107.376C161.944 107.03 162.752 106.367 164.05 105.531C164.367 105.329 164.742 105.127 165.117 104.896C165.492 104.694 165.924 104.492 166.357 104.262C167.222 103.829 168.116 103.425 169.01 103.021C168.203 103.339 167.366 103.627 166.588 103.915C165.809 104.204 165.03 104.463 164.367 104.752C163.04 105.329 161.973 105.934 161.569 106.684C158.599 107.809 161.396 105.559 157.82 107.001C157.532 107.203 157.243 107.405 156.926 107.607C156.637 107.809 156.349 108.04 156.032 108.299C155.426 108.761 154.82 109.251 154.157 109.741C153.84 109.972 153.494 110.203 153.177 110.434C152.859 110.664 152.542 110.895 152.196 111.097C151.533 111.501 150.84 111.876 150.148 112.164L150.119 111.991C149.687 112.193 149.312 112.366 148.937 112.568C148.562 112.77 148.216 112.972 147.87 113.174C147.178 113.577 146.543 114.01 145.966 114.414C144.813 115.25 143.803 116.115 142.822 116.981C141.871 117.817 140.948 118.682 139.881 119.461C138.871 120.24 137.718 121.018 136.362 121.682L136.737 121.076C135.727 121.48 134.487 122.403 133.074 123.441C132.382 123.96 131.632 124.479 130.882 124.998C130.68 125.114 130.507 125.258 130.305 125.373C130.103 125.489 129.93 125.604 129.728 125.72C129.325 125.95 128.921 126.181 128.517 126.354C129.469 125.921 130.565 125.921 128.834 127.248C125.143 129.123 123.21 131.084 120.499 131.978C120.499 131.978 120.038 132.526 119.605 133.045C119.49 133.189 119.374 133.305 119.259 133.449C119.173 133.564 119.086 133.68 118.999 133.766C118.913 133.853 118.884 133.939 118.826 133.968C118.798 134.026 118.769 134.055 118.769 134.055C118.48 134.228 118.221 134.372 118.048 134.458C117.846 134.574 117.702 134.632 117.644 134.66L117.673 134.718L117.73 134.833C117.846 135.093 117.961 135.353 118.077 135.612C118.192 135.872 118.278 136.102 118.394 136.362L118.538 136.737L118.682 137.054C118.769 137.256 118.855 137.487 118.942 137.718C119.028 137.919 119.086 138.121 119.173 138.323C119.23 138.496 119.317 138.698 119.374 138.9C119.432 139.073 119.49 139.246 119.547 139.419C119.605 139.592 119.663 139.736 119.692 139.909C119.721 140.054 119.778 140.198 119.807 140.371C119.836 140.515 119.894 140.631 119.922 140.775C119.951 140.832 119.951 140.919 119.98 140.977L120.095 141.121C120.182 141.236 120.24 141.323 120.297 141.438L120.355 141.525L120.384 141.553L120.355 141.582L120.24 141.755C120.153 141.871 120.095 141.986 120.009 142.073L119.98 142.101L119.951 142.13C119.432 140.227 120.643 144.726 120.528 144.265V144.236V144.178C120.528 144.12 120.528 144.091 120.528 144.034C120.528 143.976 120.528 143.918 120.528 143.89V143.918V144.091C120.499 144.409 120.355 145.187 120.038 145.966C119.98 146.168 119.865 146.37 119.778 146.543C119.721 146.63 119.663 146.745 119.605 146.831C119.547 146.918 119.519 147.004 119.461 147.091L119.288 147.322C119.23 147.379 119.173 147.466 119.115 147.524C119.028 147.639 118.855 147.725 118.913 147.899V148.014V148.072C118.913 148.072 118.855 148.043 118.855 148.014L118.567 147.783L118.538 147.754H118.509C118.423 147.725 119.201 147.841 118.884 147.812L118.942 147.783L118.999 147.754C119.028 147.754 119.028 147.754 119.086 147.725C119.173 147.697 119.23 147.668 119.317 147.639C119.403 147.61 119.547 147.552 119.634 147.524C119.721 147.495 119.894 147.437 120.038 147.408C120.643 147.264 121.48 147.149 122.691 147.091H122.922H123.037H123.181H123.701H124.22H124.364H124.508H124.825C125.027 147.091 125.229 147.12 125.46 147.12L125.777 147.149H125.921H126.123C126.642 147.177 127.133 147.235 127.623 147.293L127.825 147.322L128.056 147.351L128.517 147.408C128.834 147.437 129.152 147.466 129.44 147.524L129.902 147.581L130.132 147.61L130.421 147.639C130.824 147.697 131.199 147.754 131.603 147.812L132.18 147.899L132.468 147.956L132.613 147.985H132.641C132.641 147.956 132.641 147.956 132.641 147.927L132.67 147.812L132.699 147.668V147.639L132.728 147.581L132.757 147.437L132.815 147.149C132.901 146.774 132.988 146.399 133.074 146.024C133.161 145.649 133.276 145.274 133.362 144.87C133.536 144.091 133.795 143.313 134.026 142.534C134.545 140.948 135.093 139.304 135.785 137.631C136.102 136.795 136.506 135.958 136.852 135.093L137.458 133.824L137.746 133.189L138.064 132.555L138.698 131.257L139.361 129.959C139.477 129.728 139.592 129.527 139.708 129.296L139.881 128.95L140.256 128.258L140.631 127.565L141.034 126.844C141.323 126.383 141.582 125.893 141.871 125.431C143.024 123.556 144.149 121.682 145.361 119.836C145.966 118.913 146.543 117.99 147.149 117.096C147.754 116.173 148.36 115.279 148.966 114.385C151.417 110.78 153.84 107.261 156.176 103.829C156.753 102.964 157.33 102.127 157.907 101.291C158.454 100.454 159.002 99.6469 159.55 98.8105C159.81 98.4067 160.098 98.003 160.358 97.5992C160.502 97.3973 160.618 97.1954 160.762 96.9935C160.877 96.7916 161.021 96.5897 161.137 96.4167C161.627 95.638 162.146 94.8593 162.636 94.0805C162.867 93.7056 163.127 93.3307 163.358 92.9269C163.588 92.5519 163.819 92.177 164.021 91.8309C164.482 91.1099 164.915 90.3888 165.348 89.6678C165.463 89.4948 165.578 89.3217 165.665 89.1487C165.751 88.9756 165.867 88.8026 165.953 88.6295C166.155 88.2834 166.357 87.9662 166.53 87.6201C166.905 86.9567 167.309 86.2934 167.684 85.63C167.886 85.2839 168.03 84.9955 168.203 84.6783C168.376 84.361 168.52 84.0726 168.693 83.7842C169.01 83.1785 169.328 82.6017 169.616 82.0248L169.731 81.7941L169.789 81.6788L169.818 81.5922C169.876 81.448 169.933 81.3327 169.991 81.1884C170.106 80.9289 170.193 80.6693 170.308 80.4097C170.51 79.8906 170.712 79.4003 170.914 78.91C170.972 78.7946 171 78.6793 171.058 78.535C171.087 78.4774 171.116 78.4197 171.116 78.362L171.174 78.1889C171.231 77.9871 171.289 77.7563 171.347 77.5544C171.462 77.1218 171.577 76.718 171.722 76.3143C171.779 76.1124 171.837 75.9105 171.895 75.7086C171.923 75.6221 171.952 75.5067 171.981 75.4202C172.01 75.3336 172.01 75.2471 172.039 75.1606C172.096 74.8145 172.183 74.4973 172.241 74.1512C172.298 73.8339 172.356 73.5166 172.414 73.1994C172.443 73.0552 172.471 72.911 172.5 72.7379C172.529 72.5937 172.529 72.4784 172.558 72.3342C172.616 71.815 172.673 71.3535 172.731 70.9209L172.875 71.3535C173.135 68.8732 173.077 66.4794 172.817 64.2297C172.731 63.6817 172.644 63.1338 172.587 62.5569C172.471 62.0378 172.385 61.4898 172.27 60.9418C172.154 60.4227 172.01 59.9035 171.895 59.3555C171.75 58.8364 171.606 58.2884 171.375 57.6827C171.145 57.0771 170.856 56.356 170.366 55.5196C169.904 54.6832 169.241 53.7026 168.491 52.7797C166.963 50.8762 165.001 49.2034 163.04 47.992C161.108 46.7519 159.204 45.9443 157.387 45.3675C156.464 45.0791 155.57 44.8483 154.619 44.6464C153.667 44.4734 152.715 44.3292 151.763 44.1561C150.61 44.0408 149.456 43.9831 148.302 43.9254C147.697 43.9254 147.091 43.9542 146.485 43.9542C145.88 43.9831 145.274 43.9831 144.668 44.0119L142.736 44.2427L141.784 44.358C141.467 44.3869 141.15 44.4157 140.804 44.5022C140.14 44.6464 139.477 44.7906 138.814 44.906L137.804 45.1079C137.631 45.1367 137.487 45.1656 137.314 45.2233L136.795 45.3675C131.315 46.8672 125.604 49.0592 119.865 51.9145C119.144 52.2894 118.423 52.6355 117.702 53.0104C117.356 53.1835 117.009 53.3565 116.634 53.5584C116.26 53.7603 115.913 53.9622 115.539 54.1641C114.817 54.5679 114.096 54.9716 113.404 55.3754C113.058 55.5773 112.683 55.7792 112.337 55.9811C111.991 56.2118 111.616 56.4426 111.27 56.6444C110.549 57.1059 109.857 57.5385 109.136 57.9711C108.79 58.2019 108.444 58.4038 108.097 58.6345C107.751 58.8364 107.405 59.096 107.059 59.3555C106.367 59.8458 105.675 60.3073 104.983 60.7976C104.636 61.0283 104.29 61.2591 103.973 61.4898C103.627 61.7205 103.31 61.9513 102.964 62.2108C101.608 63.2203 100.281 64.2297 98.9836 65.1815C97.6857 66.1909 96.4167 67.2292 95.2054 68.2098C94.8881 68.4694 94.5997 68.7001 94.2824 68.9597C93.994 69.2193 93.6768 69.4789 93.3884 69.7384C92.7827 70.2576 92.2059 70.7479 91.629 71.2382C91.0522 71.7285 90.5042 72.2188 89.9274 72.7091C89.3794 73.1994 88.8314 73.6897 88.3123 74.18C86.9567 75.0741 85.4858 76.1124 83.9861 77.2949C83.2362 77.9005 82.4863 78.5062 81.7076 79.1407C81.0154 79.7175 80.2944 80.2944 79.6022 80.9C77.9005 82.3133 76.2566 83.7553 74.7568 84.909C75.6509 84.361 76.0835 84.3033 76.1124 84.534C76.1412 84.7648 75.7951 85.2551 75.1895 85.7742C73.0264 87.6489 71.9881 88.5718 71.4401 89.1198C70.8921 89.6678 70.8921 89.7832 70.8633 89.9274C70.8633 90.0716 70.8632 90.2158 70.3441 90.8215C70.0845 91.1099 69.7096 91.5137 69.1039 92.0905C68.8155 92.3789 68.4694 92.6673 68.0945 93.0423C67.7484 93.3595 67.085 93.9652 67.1139 93.9363C66.6236 94.5997 65.4988 95.6091 64.0567 96.5897C63.3357 97.08 62.4993 97.5415 61.634 97.9453C61.2014 98.1183 60.7399 98.2914 60.2785 98.3202C59.817 98.3779 59.2979 98.2914 58.8941 98.0318C58.4903 97.7722 58.173 97.3396 58.0288 96.8493C57.8846 96.359 57.8558 95.8399 57.8846 95.3496C57.9135 94.8593 58 94.369 58.1442 93.9363C58.2596 93.5037 58.3749 93.0711 58.5191 92.6673C59.0383 91.081 59.6151 90.0139 60.0189 89.4659C59.817 89.1198 59.7882 88.716 59.817 88.3123V88.2834C59.817 88.2834 59.817 88.2546 59.8458 88.2257L59.9035 88.0815L59.9901 87.7931C60.0477 87.6201 60.1343 87.4182 60.1919 87.2451C60.3362 86.8702 60.4804 86.4953 60.6246 86.1203C60.913 85.3705 61.2302 84.6206 61.5475 83.8707C62.8453 80.8712 64.3163 77.9582 65.2969 75.1606V75.824C65.4411 75.449 65.6718 74.9876 65.9314 74.4396C66.0467 74.2088 66.1621 73.9781 66.2775 73.7185C66.4217 73.4301 66.5659 73.1417 66.7389 72.8533C67.0562 72.2476 67.4023 71.642 67.7484 70.9498C68.4694 69.6231 69.277 68.1233 70.1999 66.5659C70.6614 65.7583 71.1517 64.9508 71.642 64.0855C72.1323 63.2491 72.6803 62.355 73.2282 61.461C73.7762 60.5669 74.3242 59.6439 74.9299 58.6922C75.5356 57.7404 76.1412 56.7598 76.7757 55.7792C77.3814 54.7986 78.0447 53.7892 78.7081 52.7509C79.3715 51.7126 80.0348 50.6743 80.727 49.6072C82.1114 47.4729 83.5535 45.3098 84.9955 43.089C86.4376 40.8682 87.9085 38.6474 89.3506 36.3978L89.6101 35.9652C89.6967 35.821 89.812 35.6768 89.8697 35.5614L90.3023 34.7827L91.1387 33.2253C91.4271 32.7061 91.6867 32.187 91.9751 31.6678C92.0328 31.5525 92.1193 31.4082 92.177 31.2929L92.3212 30.9468L92.5808 30.2546C92.9269 29.3317 93.3018 28.4376 93.6479 27.5147C93.8787 26.7071 94.0806 25.9284 94.3113 25.1497C94.4266 24.7747 94.542 24.371 94.6285 23.996C94.6862 23.6499 94.7439 23.3327 94.8016 22.9866C94.917 22.3232 95.0323 21.6599 95.1477 21.0254C95.2054 20.4485 95.263 19.9005 95.3207 19.3237C95.3496 19.0353 95.3784 18.7757 95.4073 18.5162C95.4361 18.2566 95.4361 18.0259 95.4361 17.7951C95.4649 17.3337 95.4649 16.8722 95.4938 16.4396C95.4938 16.3242 95.4938 16.2088 95.4938 16.1223C95.4938 16.0358 95.4938 15.9204 95.4938 15.8339C95.4938 15.632 95.4938 15.459 95.4938 15.2571C95.4938 14.8821 95.4938 14.5361 95.4649 14.19C95.4649 13.8439 95.4361 13.5843 95.4073 13.2959C95.3496 12.1422 95.2342 11.3635 95.1477 10.8444L95.0035 11.5942C94.8593 11.1616 94.8016 10.7867 94.7151 10.4694C94.6574 10.1233 94.5997 9.80607 94.542 9.48881C94.4555 8.8543 94.3978 8.24863 94.3113 7.64296C94.2248 7.03729 94.1094 6.40278 93.821 5.53754C93.7345 5.33565 93.6479 5.07608 93.5326 4.84535C93.4749 4.72998 93.4172 4.58578 93.3307 4.47041C93.2442 4.35505 93.1865 4.21084 93.0999 4.06663C93.0134 3.92243 92.9269 3.80706 92.8115 3.66285C92.8404 3.63401 92.7827 3.69169 92.7827 3.69169L92.7538 3.66285L92.725 3.60517L92.6385 3.4898C92.5808 3.43212 92.5231 3.3456 92.4654 3.25907C92.2347 2.97066 91.9751 2.65341 91.7156 2.33615C91.6579 2.53804 91.5425 2.62456 91.3406 2.6534C91.1387 2.68225 90.8792 2.6534 90.5331 2.53804C89.8986 2.36499 89.0333 2.04774 88.1392 1.75932C87.2451 1.49975 86.3222 1.24018 85.5147 1.06713C85.1109 0.980606 84.7071 0.894083 84.361 0.8364C84.0149 0.778717 83.6688 0.721035 83.4092 0.692193L83.7265 0.432621C82.9189 0.317255 81.823 0.173047 80.554 0.0576819C80.3809 0.0576819 80.2367 0.0288409 80.0636 0.0288409C79.8906 -4.40514e-07 79.7464 0 79.5445 0C79.1696 0 78.7946 0.0288409 78.3908 0.0288409C77.6121 0.0576823 76.8046 0.0865245 75.9682 0.115366C75.5644 0.144207 75.1318 0.144206 74.6992 0.173048H74.5549L74.3819 0.201889L74.0358 0.259573C73.8051 0.288414 73.5743 0.317254 73.3436 0.374936C72.4207 0.519143 71.4978 0.66335 70.5748 0.807557C70.1134 0.86524 69.6807 0.951765 69.2193 1.00945C69.0174 1.03829 68.7578 1.09597 68.5271 1.15365C68.2964 1.21134 68.0656 1.26902 67.8349 1.3267C66.912 1.55743 66.0179 1.75932 65.1815 1.96121L65.9602 0.980607C65.1815 1.24018 64.3739 1.47091 63.4799 1.73048C62.5858 2.04774 61.634 2.33615 60.6822 2.6534C59.7305 2.94182 58.721 3.25907 57.7404 3.54749C56.731 3.89358 55.7215 4.23968 54.7409 4.55693C53.7603 4.87419 52.7797 5.19145 51.8279 5.5087C50.8762 5.88364 49.9533 6.22973 49.088 6.54699C48.2228 6.86424 47.4152 7.1815 46.723 7.46991C46.3769 7.61412 46.0308 7.72949 45.7136 7.87369C45.3963 8.0179 45.1079 8.16211 44.8195 8.27747C43.6082 8.79662 42.3103 9.31576 40.9547 9.86375C40.6087 10.008 40.2626 10.1522 39.9165 10.2675C39.5704 10.4406 39.1954 10.6136 38.8493 10.7867C38.1283 11.1328 37.3784 11.4789 36.6285 11.8538C35.8787 12.1999 35.0999 12.5748 34.2924 12.9498C34.0905 13.0363 33.8886 13.1228 33.6867 13.2382C33.4848 13.3536 33.2829 13.4689 33.0811 13.5843C32.6773 13.815 32.2735 14.0457 31.8697 14.2476C31.0333 14.7091 30.2258 15.1706 29.3605 15.632C28.5241 16.1223 27.6589 16.5549 26.7936 17.1606C25.092 18.3143 23.3327 19.4679 21.5733 20.6793C19.8429 22.006 18.1412 23.4192 16.4107 24.8324L15.7762 25.3516C15.6609 25.4381 15.5743 25.5246 15.459 25.6111L15.1417 25.8995C14.7379 26.3033 14.3342 26.6783 13.9304 27.082C13.1228 27.8608 12.3153 28.6683 11.5365 29.447C10.7578 30.2546 9.95027 31.0045 9.22924 31.8409C8.8543 32.2446 8.50821 32.6773 8.16211 33.1099L7.64296 33.7444L7.38339 34.0617L7.21034 34.2924C7.21034 34.2924 6.77772 34.552 6.14321 34.9557C5.82596 35.1576 5.45102 35.3884 5.04724 35.6479C4.6723 35.9075 4.23968 36.2248 3.8359 36.5132C2.19195 37.6668 0.519146 38.8782 0.519146 38.8782L0 39.9453C0 39.9453 0.836401 41.5892 2.39383 43.81C3.95127 46.0597 6.20089 48.8573 8.94082 51.3088C10.3252 52.549 11.7673 53.7026 13.2959 54.7121C14.8245 55.7215 16.4107 56.5002 17.997 57.1059C19.5833 57.7116 21.1696 58.0577 22.6982 58.1154C23.448 58.1442 24.1979 58.0865 24.9189 57.9423C25.265 57.8558 25.64 57.7981 26.0149 57.6827C26.3899 57.5674 26.736 57.452 27.1109 57.279L27.6012 57.8846L28.8991 56.1253C29.3894 55.6927 29.7931 55.2889 30.1104 54.914C30.1969 54.8274 30.2546 54.7409 30.3123 54.6544C30.3123 54.6255 30.3411 54.5967 30.3411 54.5679C30.37 54.5102 30.37 54.4813 30.37 54.4237C30.4276 54.2506 30.4276 54.1929 30.6872 54.4813C30.6872 54.4813 30.6584 54.5102 30.6007 54.5679C30.5719 54.5967 30.543 54.6255 30.5142 54.6544C30.4853 54.6832 30.4853 54.6832 30.4565 54.7121L30.4276 54.7409L30.3123 54.8563C29.995 55.1735 29.7066 55.4908 29.4759 55.7504C29.3605 55.8657 29.274 55.9811 29.1875 56.0388C29.1298 56.0965 29.0721 56.1541 29.0721 56.1541C30.0239 55.2601 30.2834 55.2024 30.2546 55.5196C30.2258 55.6638 30.1392 55.9234 30.0527 56.183C29.9373 56.4426 29.822 56.731 29.7643 56.9905C29.9373 56.7887 30.1392 56.6156 30.3411 56.4137C30.543 56.2407 30.7161 56.0676 30.918 55.8946C31.0045 55.8081 31.1198 55.7215 31.2064 55.6638L31.3506 55.5485C31.3794 55.5196 31.3794 55.5485 31.4083 55.5485C31.4659 55.5485 31.5236 55.5485 31.5813 55.5773C31.4371 55.3177 31.3217 55.4043 31.1487 55.3466C31.1198 55.1735 31.0622 54.8563 31.091 54.5967C31.1198 54.3371 31.2352 54.1064 31.4659 54.1064C31.6967 53.9334 31.8697 54.2218 32.0139 54.5102C32.187 54.7986 32.3312 55.087 32.5042 54.9716C32.9945 54.7409 33.456 54.6255 33.8309 54.6255C34.2059 54.6255 34.4654 54.7121 34.6962 54.7986C34.8981 54.914 35.0423 55.0293 35.2153 55.1159C35.3018 55.1447 35.3884 55.1735 35.5037 55.1735C35.6191 55.1735 35.7633 55.1447 35.9363 55.2024C35.2442 55.8657 35.2442 55.8369 34.9269 56.1253C35.1576 55.9811 35.3018 55.9234 35.3884 55.9234C35.4749 55.8946 35.5037 55.9234 35.5326 55.9234C35.5903 55.9523 35.6479 55.9523 35.8787 55.8657C35.1576 56.4137 34.2347 56.9905 33.629 57.3943C33.9463 57.1924 34.177 57.0482 34.2924 57.0194C34.4366 56.9617 34.4654 57.0194 34.4654 57.1059C34.0905 57.6251 33.8886 57.8846 33.8021 57.8846Z" fill="#F8DF00"/>
</g>
</svg>
