<svg width="69" height="69" viewBox="0 0 69 69" fill="none" xmlns="http://www.w3.org/2000/svg">
<g id="language" clip-path="url(#clip0_140_84)">
<path id="Vector" d="M34.471 6.00732C18.743 6.00732 6.00684 18.772 6.00684 34.5C6.00684 50.2279 18.743 62.9926 34.471 62.9926C50.2274 62.9926 62.9921 50.2279 62.9921 34.5C62.9921 18.772 50.2274 6.00732 34.471 6.00732ZM54.2164 23.1029H45.8111C44.8993 19.5413 43.5886 16.1222 41.8791 12.9595C47.1217 14.7546 51.4811 18.4016 54.2164 23.1029ZM34.4995 11.8198C36.8644 15.2389 38.7164 19.0285 39.9416 23.1029H29.0574C30.2826 19.0285 32.1346 15.2389 34.4995 11.8198ZM12.4462 40.1985C11.9903 38.375 11.7054 36.466 11.7054 34.5C11.7054 32.534 11.9903 30.625 12.4462 28.8014H22.0767C21.8487 30.682 21.6778 32.5625 21.6778 34.5C21.6778 36.4375 21.8487 38.318 22.0767 40.1985H12.4462ZM14.7826 45.897H23.1879C24.0997 49.4586 25.4103 52.8777 27.1199 56.0404C21.8772 54.2454 17.5179 50.6268 14.7826 45.897ZM23.1879 23.1029H14.7826C17.5179 18.3731 21.8772 14.7546 27.1199 12.9595C25.4103 16.1222 24.0997 19.5413 23.1879 23.1029ZM34.4995 57.1801C32.1346 53.761 30.2826 49.9715 29.0574 45.897H39.9416C38.7164 49.9715 36.8644 53.761 34.4995 57.1801ZM41.1668 40.1985H27.8322C27.5758 38.318 27.3763 36.4375 27.3763 34.5C27.3763 32.5625 27.5758 30.6535 27.8322 28.8014H41.1668C41.4232 30.6535 41.6226 32.5625 41.6226 34.5C41.6226 36.4375 41.4232 38.318 41.1668 40.1985ZM41.8791 56.0404C43.5886 52.8777 44.8993 49.4586 45.8111 45.897H54.2164C51.4811 50.5983 47.1217 54.2454 41.8791 56.0404ZM46.9223 40.1985C47.1502 38.318 47.3212 36.4375 47.3212 34.5C47.3212 32.5625 47.1502 30.682 46.9223 28.8014H56.5528C57.0087 30.625 57.2936 32.534 57.2936 34.5C57.2936 36.466 57.0087 38.375 56.5528 40.1985H46.9223Z" fill="#1C1917"/>
</g>
<defs>
<clipPath id="clip0_140_84">
<rect width="68.3824" height="68.3824" fill="white" transform="translate(0.308594 0.308594)"/>
</clipPath>
</defs>
</svg>
