<svg width="80" height="80" viewBox="0 0 80 80" fill="none" xmlns="http://www.w3.org/2000/svg">
<g id="monetization_on" clip-path="url(#clip0_140_102)" filter="url(#filter0_i_140_102)">
<path id="Vector" d="M40.0003 6.6665C21.6003 6.6665 6.66699 21.5998 6.66699 39.9998C6.66699 58.3998 21.6003 73.3332 40.0003 73.3332C58.4003 73.3332 73.3337 58.3998 73.3337 39.9998C73.3337 21.5998 58.4003 6.6665 40.0003 6.6665ZM44.7003 60.2998V62.2332C44.7003 64.6665 42.7003 66.6665 40.267 66.6665H40.2337C37.8003 66.6665 35.8003 64.6665 35.8003 62.2332V60.2332C31.367 59.2998 27.4337 56.8665 25.767 52.7665C25.0003 50.9332 26.4337 48.8998 28.4337 48.8998H29.2337C30.467 48.8998 31.467 49.7332 31.9337 50.8998C32.9003 53.3998 35.4337 55.1332 40.3003 55.1332C46.8337 55.1332 48.3003 51.8665 48.3003 49.8332C48.3003 47.0665 46.8337 44.4665 39.4003 42.6998C31.1337 40.6998 25.467 37.2998 25.467 30.4665C25.467 24.7332 30.1003 20.9998 35.8337 19.7665V17.7665C35.8337 15.3332 37.8337 13.3332 40.267 13.3332H40.3003C42.7337 13.3332 44.7337 15.3332 44.7337 17.7665V19.8332C49.3337 20.9665 52.2337 23.8332 53.5003 27.3665C54.167 29.1998 52.767 31.1332 50.8003 31.1332H49.9337C48.7003 31.1332 47.7003 30.2665 47.367 29.0665C46.6003 26.5332 44.5003 24.8998 40.3003 24.8998C35.3003 24.8998 32.3003 27.1665 32.3003 30.3665C32.3003 33.1665 34.467 34.9998 41.2003 36.7332C47.9337 38.4665 55.1337 41.3665 55.1337 49.7665C55.067 55.8665 50.5003 59.1998 44.7003 60.2998Z" fill="white"/>
</g>
<defs>
<filter id="filter0_i_140_102" x="0" y="0" width="80" height="84" filterUnits="userSpaceOnUse" color-interpolation-filters="sRGB">
<feFlood flood-opacity="0" result="BackgroundImageFix"/>
<feBlend mode="normal" in="SourceGraphic" in2="BackgroundImageFix" result="shape"/>
<feColorMatrix in="SourceAlpha" type="matrix" values="0 0 0 0 0 0 0 0 0 0 0 0 0 0 0 0 0 0 127 0" result="hardAlpha"/>
<feOffset dy="4"/>
<feGaussianBlur stdDeviation="2"/>
<feComposite in2="hardAlpha" operator="arithmetic" k2="-1" k3="1"/>
<feColorMatrix type="matrix" values="0 0 0 0 0 0 0 0 0 0 0 0 0 0 0 0 0 0 0.25 0"/>
<feBlend mode="normal" in2="shape" result="effect1_innerShadow_140_102"/>
</filter>
<clipPath id="clip0_140_102">
<rect width="80" height="80" fill="white"/>
</clipPath>
</defs>
</svg>
