<svg width="48" height="53" viewBox="0 0 48 53" fill="none" xmlns="http://www.w3.org/2000/svg">
<g id="PhoneHand">
<path id="Vector" d="M7.51577 15.5738L5.31126 14.7423C3.29552 13.9836 1.04638 15.0024 0.287652 17.0165C-0.470976 19.0323 0.547799 21.2806 2.56273 22.0393L7.51577 23.9059V15.5738Z" fill="white"/>
<path id="Vector_2" d="M36.9482 17.1784C36.9256 17.2579 36.9037 17.3325 36.8819 17.4111V44.4545C36.8819 45.2033 36.5747 45.8914 36.0834 46.381C35.5931 46.8738 34.9049 47.1802 34.1553 47.1802H14.1836C14.2809 47.0214 14.3692 46.8559 14.4373 46.6745C14.5669 46.3267 14.6286 45.9741 14.6286 45.6272C14.6286 45.0298 14.4454 44.4455 14.1131 43.956C13.7808 43.4664 13.3034 43.0758 12.706 42.8505L9.63259 41.693H9.63179C9.28579 41.5625 8.93397 41.5001 8.58627 41.5001C7.98818 41.5001 7.40375 41.6832 6.91502 42.0163C6.42549 42.3495 6.03316 42.826 5.80789 43.4234C5.67912 43.7678 5.6167 44.1212 5.6167 44.4681C5.6167 45.0678 5.80146 45.6515 6.13297 46.141C6.4661 46.6289 6.94357 47.0229 7.54006 47.2465L10.6143 48.404C10.9604 48.5353 11.3129 48.5969 11.6599 48.5969C12.2589 48.5969 12.8424 48.4121 13.3311 48.0814C13.4162 48.0239 13.4932 47.9566 13.5718 47.8902C16.03 49.9553 19.8791 51.9866 25.6038 52.1227C37.5636 52.4056 40.7441 43.5452 42.472 33.8296C42.472 33.8296 46.5992 15.2204 46.8788 14.238C48.2784 9.32057 39.6076 7.83729 36.9482 17.1784Z" fill="white"/>
<path id="Vector_3" d="M12.1729 25.6174V5.08881H32.225V37.9273H15.0462C15.0064 38.2758 14.927 38.6235 14.7981 38.9664C14.4732 39.8313 13.8953 40.5355 13.1828 41.0194C12.9956 41.1459 12.8003 41.2569 12.5976 41.3526L13.1861 41.5747C14.0508 41.8997 14.7568 42.4775 15.2399 43.1893C15.633 43.7679 15.8801 44.4357 15.9595 45.136H34.1546C34.3466 45.136 34.5105 45.0615 34.6369 44.9366C34.7617 44.8103 34.8363 44.6449 34.8363 44.4544V1.34433C34.8363 1.15223 34.7617 0.98939 34.6369 0.862834C34.5105 0.737284 34.3466 0.663502 34.1546 0.662598H10.2423C10.0511 0.663402 9.88731 0.737184 9.76086 0.862834C9.63601 0.989289 9.56223 1.15223 9.56152 1.34433V24.5256L11.3463 25.1959C11.642 25.3094 11.9176 25.4512 12.1729 25.6174ZM22.1989 42.9558C21.5391 42.9558 21.0058 42.4209 21.0058 41.7619C21.0058 41.103 21.5391 40.5697 22.1989 40.5697C22.8571 40.5697 23.3919 41.1031 23.3919 41.7619C23.3919 42.4209 22.8571 42.9558 22.1989 42.9558Z" fill="white"/>
<path id="Vector_4" d="M9.69923 40.2164C10.046 40.3462 10.3987 40.4077 10.7447 40.4077C11.3437 40.4077 11.9273 40.2246 12.416 39.8923C12.9055 39.5599 13.297 39.0818 13.5223 38.4852C13.6529 38.1383 13.7145 37.7866 13.7145 37.4396C13.7145 36.8407 13.5305 36.2562 13.1991 35.7683C12.8659 35.2796 12.3885 34.8866 11.7928 34.662L8.71775 33.5037C8.37166 33.374 8.01913 33.3125 7.67214 33.3125C7.07314 33.3125 6.48962 33.4957 6.00089 33.828C5.51216 34.1603 5.11993 34.6385 4.89456 35.2366C4.76328 35.581 4.70246 35.9328 4.70166 36.2806C4.70166 36.8803 4.88652 37.4639 5.21793 37.9518C5.55106 38.4414 6.02833 38.8337 6.62582 39.0589L9.69923 40.2164Z" fill="white"/>
<path id="Vector_5" d="M8.77321 32.0271C9.12 32.1584 9.47263 32.22 9.81953 32.22C10.4177 32.22 11.0029 32.0368 11.4917 31.7045C11.9804 31.3714 12.3726 30.8939 12.5972 30.2974C12.7277 29.9496 12.7885 29.598 12.7885 29.2502C12.7893 28.652 12.6053 28.0685 12.2738 27.579C11.9407 27.0902 11.4625 26.6987 10.866 26.4733L7.79183 25.3159C7.44574 25.1847 7.09391 25.123 6.74621 25.123C6.14721 25.123 5.56369 25.3062 5.07496 25.6401C4.58623 25.9717 4.194 26.4507 3.96783 27.0472C3.83896 27.3925 3.77734 27.7458 3.77734 28.0927C3.77734 28.6908 3.96049 29.2744 4.29281 29.764C4.62513 30.2527 5.10341 30.6449 5.7007 30.8711L8.77321 32.0271Z" fill="white"/>
<path id="Vector_6" d="M22.1995 30.3667C26.2667 30.3667 29.563 27.0696 29.563 23.0024C29.563 18.9344 26.2667 15.6382 22.1995 15.6382C18.1308 15.6382 14.8353 18.9344 14.8345 23.0024C14.8353 27.0696 18.1308 30.3667 22.1995 30.3667ZM26.5114 27.3135C25.8744 27.9498 25.1019 28.4434 24.2389 28.749C24.653 28.2498 24.9959 27.6095 25.2658 26.8686H26.9151C26.7878 27.0226 26.6526 27.1725 26.5114 27.3135ZM27.3811 26.2153H25.4772C25.7212 25.3448 25.8678 24.3674 25.8946 23.3292H28.2872C28.233 24.3852 27.9064 25.3692 27.3811 26.2153ZM28.2873 22.6766H25.8922C25.8672 21.6376 25.7236 20.6601 25.4789 19.7913H27.3811C27.9064 20.6358 28.233 21.6198 28.2873 22.6766ZM26.5114 18.6922C26.6526 18.8333 26.7878 18.9824 26.9151 19.1364H25.2658C25.1498 18.8154 25.0193 18.5123 24.8752 18.2335C24.6879 17.8688 24.474 17.5389 24.2405 17.2561C25.1028 17.5631 25.8751 18.0567 26.5114 18.6922ZM22.5262 16.914C22.6283 16.9204 22.7288 16.927 22.8302 16.9375C22.989 17.0105 23.1487 17.1069 23.3059 17.2359C23.7858 17.6265 24.2307 18.2887 24.5687 19.1365H22.5262V16.914ZM22.5262 19.7913H24.7948C25.0558 20.6391 25.2139 21.623 25.2422 22.6766H22.5262V19.7913ZM22.5262 23.3291H25.2397C25.2098 24.3836 25.0517 25.3667 24.7939 26.2152H22.5262V23.3291ZM22.5262 26.8685H24.5645C24.481 27.0809 24.392 27.2867 24.2955 27.4715C24.0062 28.0325 23.6641 28.4766 23.3058 28.7691C23.1486 28.8979 22.989 28.996 22.8301 29.0682C22.7287 29.078 22.6282 29.0861 22.5261 29.0909V26.8685H22.5262ZM17.8885 27.3135C17.7458 27.1725 17.6088 27.0226 17.4849 26.8686H19.1317C19.2492 27.1896 19.3773 27.492 19.5224 27.7715C19.7113 28.1395 19.9229 28.4653 20.1571 28.749C19.2955 28.4434 18.5224 27.9497 17.8885 27.3135ZM21.8729 29.0909C21.7708 29.0861 21.6695 29.078 21.5673 29.0682C21.4085 28.9961 21.248 28.898 21.0908 28.7691C20.611 28.3776 20.1676 27.7154 19.828 26.8684H21.8729V29.0909ZM21.8729 26.2153H19.6019C19.3433 25.3668 19.1837 24.382 19.157 23.3292H21.873V26.2153H21.8729ZM21.8729 22.6766H19.1578C19.1845 21.623 19.3457 20.639 19.6044 19.7913H21.8729V22.6766ZM21.0908 17.2358C21.248 17.1069 21.4084 17.0104 21.5673 16.9374C21.6695 16.9269 21.7708 16.9204 21.8729 16.9139V19.1363H19.832C19.9155 18.9256 20.0055 18.7205 20.1027 18.5333C20.3921 17.9725 20.7325 17.5283 21.0908 17.2358ZM17.8885 18.6922C18.5224 18.0568 19.2972 17.5615 20.1579 17.2561C19.7469 17.7552 19.4009 18.3973 19.1317 19.1364H17.4849C17.6088 18.9824 17.7458 18.8332 17.8885 18.6922ZM17.0156 19.7913H18.9203C18.6755 20.6601 18.5297 21.6376 18.5029 22.6766H16.1095C16.1653 21.6198 16.4903 20.6358 17.0156 19.7913ZM18.5053 23.3291C18.532 24.3673 18.673 25.3448 18.9202 26.2152H17.0155C16.4902 25.3691 16.1653 24.3851 16.1093 23.3291H18.5053Z" fill="white"/>
</g>
</svg>
