<svg width="52" height="45" viewBox="0 0 52 45" fill="none" xmlns="http://www.w3.org/2000/svg">
<g id="SignUp">
<path id="Vector" fill-rule="evenodd" clip-rule="evenodd" d="M22 12C22 5.37259 27.1488 0 33.5 0C39.8512 0 45 5.37259 45 12C45 18.6274 39.8512 24 33.5 24C27.1488 24 22 18.6274 22 12ZM33.5 4.8C29.6891 4.8 26.6 8.02356 26.6 12C26.6 15.9764 29.6891 19.2 33.5 19.2C37.3109 19.2 40.4 15.9764 40.4 12C40.4 8.02356 37.3109 4.8 33.5 4.8Z" fill="white"/>
<path id="Vector_2" d="M9.5 13C10.8117 13 11.875 14.0074 11.875 15.25V19.75H16.625C17.9367 19.75 19 20.7573 19 22C19 23.2427 17.9367 24.25 16.625 24.25H11.875V28.75C11.875 29.9927 10.8117 31 9.5 31C8.18834 31 7.125 29.9927 7.125 28.75V24.25H2.375C1.06333 24.25 0 23.2427 0 22C0 20.7573 1.06333 19.75 2.375 19.75H7.125V15.25C7.125 14.0074 8.18834 13 9.5 13Z" fill="white"/>
<path id="Vector_3" fill-rule="evenodd" clip-rule="evenodd" d="M33 25C28.2647 25 23.7266 25.6355 20.2805 27.2465C16.7673 28.8885 14 31.7855 14 36.25C14 37.4167 14.2024 38.7445 14.9565 40.0107C15.7104 41.2765 16.8687 42.2347 18.3648 42.9473C21.2364 44.3147 25.8368 45 33 45C40.1632 45 44.7636 44.3147 47.6352 42.9473C49.1312 42.2347 50.2895 41.2765 51.0436 40.0107C51.7976 38.7445 52 37.4167 52 36.25C52 31.7855 49.2327 28.8885 45.7196 27.2465C42.2734 25.6355 37.7353 25 33 25ZM18.75 36.25C18.75 34.4645 19.7044 32.9865 22.2082 31.816C24.7792 30.6145 28.5535 30 33 30C37.4465 30 41.2208 30.6145 43.7918 31.816C46.2957 32.9865 47.25 34.4645 47.25 36.25C47.25 36.809 47.1555 37.1255 47.0189 37.355C46.8824 37.5845 46.5563 37.9733 45.6773 38.3918C43.7989 39.2863 40.0868 40 33 40C25.9132 40 22.2011 39.2863 20.3227 38.3918C19.4438 37.9733 19.1177 37.5845 18.981 37.355C18.8444 37.1255 18.75 36.809 18.75 36.25Z" fill="white"/>
</g>
</svg>
